<svg xmlns="http://www.w3.org/2000/svg" viewBox="0 0 50 50" enable-background="new 0 0 50 50">
    <path style="text-indent:0;text-align:start;line-height:normal;text-transform:none;block-progression:tb;-inkscape-font-specification:Bitstream Vera Sans" d="M 19 9 C 17.354545 9 16 10.354545 16 12 L 16 18 L 3 18 C 1.3545455 18 0 19.354545 0 21 L 0 39.8125 A 1.0001 1.0001 0 0 0 1 40.8125 L 49 40.8125 A 1.0001 1.0001 0 0 0 50 39.8125 L 50 25 C 50 23.354545 48.645455 22 47 22 L 34 22 L 34 12 C 34 10.354545 32.645455 9 31 9 L 19 9 z M 19 11 L 31 11 C 31.554545 11 32 11.445455 32 12 L 32 23 A 1.0001 1.0001 0 0 0 33 24 L 47 24 C 47.554545 24 48 24.445455 48 25 L 48 38.8125 L 2 38.8125 L 2 21 C 2 20.445455 2.4454545 20 3 20 L 17 20 A 1.0001 1.0001 0 0 0 18 19 L 18 12 C 18 11.445455 18.445455 11 19 11 z M 24.8125 14 C 24.7125 14.5 24.4875 14.8 24.1875 15 C 23.8875 15.2 23.40625 15.3125 22.90625 15.3125 L 22.8125 15.3125 L 22.8125 16.40625 L 24.40625 16.40625 L 24.40625 22 L 26 22 L 26 14 L 24.8125 14 z M 9.5 23 C 8.6 23 7.99375 23.19375 7.59375 23.59375 C 7.19375 23.99375 7 24.5125 7 25.3125 L 7 25.59375 L 8.59375 25.59375 L 8.59375 25 C 8.59375 24.8 8.5875 24.6 8.6875 24.5 L 9 24.1875 C 9.1 24.0875 9.3 24.09375 9.5 24.09375 C 10 24.09375 10.3125 24.39375 10.3125 25.09375 L 10.3125 25.6875 C 10.3125 25.7875 10.2875 25.99375 10.1875 26.09375 C 10.0875 26.19375 10.00625 26.4 9.90625 26.5 L 9.5 26.90625 L 8.8125 27.5 C 8.5125 27.8 8.2 28.0125 8 28.3125 C 7.7 28.5125 7.50625 28.79375 7.40625 29.09375 L 7.09375 30 C 6.99375 30.3 7 30.6 7 31 L 12 31 L 12 29.6875 L 9 29.6875 C 9 29.5875 9.09375 29.3875 9.09375 29.1875 L 9.6875 28.59375 L 10.59375 27.6875 L 11.1875 27.09375 C 11.3875 26.89375 11.49375 26.7 11.59375 26.5 C 11.69375 26.3 11.8125 26.10625 11.8125 25.90625 C 11.9125 25.70625 11.90625 25.4875 11.90625 25.1875 C 11.90625 24.4875 11.7125 23.99375 11.3125 23.59375 C 10.9125 23.19375 10.3 23 9.5 23 z M 40.59375 27 C 39.89375 27 39.30625 27.19375 38.90625 27.59375 C 38.50625 27.99375 38.3125 28.60625 38.3125 29.40625 L 39.8125 29.40625 L 39.8125 28.90625 C 39.8125 28.80625 39.80625 28.6 39.90625 28.5 L 40.1875 28.1875 C 40.2875 28.0875 40.39375 28.09375 40.59375 28.09375 C 40.89375 28.09375 41.0875 28.1125 41.1875 28.3125 C 41.2875 28.4125 41.40625 28.69375 41.40625 29.09375 C 41.40625 29.29375 41.3125 29.39375 41.3125 29.59375 C 41.2125 29.79375 41.19375 29.9 41.09375 30 L 40.8125 30.3125 C 40.7125 30.4125 40.60625 30.40625 40.40625 30.40625 L 39.90625 30.40625 L 39.90625 31.5 L 40.40625 31.5 C 40.60625 31.5 40.80625 31.49375 40.90625 31.59375 L 41.1875 31.90625 C 41.2875 32.00625 41.40625 32.1125 41.40625 32.3125 L 41.40625 32.8125 L 41.40625 33.3125 C 41.40625 33.4125 41.4125 33.5875 41.3125 33.6875 L 41 34 C 40.9 34.1 40.7 34.09375 40.5 34.09375 C 40.2 34.09375 39.9125 33.8875 39.8125 33.6875 C 39.7125 33.3875 39.6125 33.1125 39.8125 32.8125 L 38.1875 32.8125 C 38.1875 33.6125 38.4125 34.19375 38.8125 34.59375 C 39.1125 34.99375 39.7 35.1875 40.5 35.1875 C 41 35.1875 41.5125 35.1 41.8125 35 C 42.1125 34.8 42.39375 34.60625 42.59375 34.40625 C 42.79375 34.10625 42.9 33.89375 43 33.59375 C 43.1 33.29375 43.09375 33.1125 43.09375 32.8125 C 43.09375 32.3125 43.0125 31.8 42.8125 31.5 C 42.6125 31.2 42.1875 31.00625 41.6875 30.90625 C 42.0875 30.80625 42.39375 30.6125 42.59375 30.3125 C 42.79375 30.0125 42.90625 29.59375 42.90625 29.09375 C 42.90625 28.29375 42.7125 27.8 42.3125 27.5 C 41.9125 27.2 41.29375 27 40.59375 27 z" color="#000" overflow="visible" enable-background="accumulate" font-family="Bitstream Vera Sans"></path>
</svg>